{"glyphs":{"0":{"ha":678,"x_min":0,"x_max":543,"o":"m 136 136 l 0 136 l 0 814 l 136 814 l 136 949 l 407 949 l 407 814 l 543 814 l 543 136 l 407 136 l 407 0 l 136 0 l 136 136 m 136 136 l 407 136 l 407 814 l 136 814 l 136 136 z "},"1":{"ha":407,"x_min":0,"x_max":271,"o":"m 136 0 l 136 678 l 0 678 l 0 814 l 136 814 l 136 949 l 271 949 l 271 0 l 136 0 z "},"2":{"ha":543,"x_min":0,"x_max":407,"o":"m 407 136 l 407 0 l 0 0 l 0 406 l 136 406 l 136 542 l 271 542 l 271 813 l 0 813 l 0 949 l 271 949 l 271 813 l 407 813 l 407 542 l 271 542 l 271 406 l 136 406 l 136 136 l 407 136 z "},"3":{"ha":543,"x_min":0,"x_max":407,"o":"m 0 949 l 0 814 l 271 814 l 271 543 l 0 543 l 0 407 l 271 407 l 271 136 l 0 136 l 0 0 l 271 0 l 271 136 l 407 136 l 407 407 l 271 407 l 271 543 l 407 543 l 407 814 l 271 814 l 271 949 l 0 949 z "},"4":{"ha":678,"x_min":0,"x_max":543,"o":"m 0 949 l 0 271 l 271 271 l 271 0 l 407 0 l 407 271 l 543 271 l 543 407 l 407 407 l 407 678 l 271 678 l 271 407 l 136 407 l 136 949 l 0 949 z "},"5":{"ha":543,"x_min":0,"x_max":407,"o":"m 136 813 l 136 543 l 271 543 l 271 407 l 407 407 l 407 136 l 271 136 l 271 0 l 0 0 l 0 136 l 271 136 l 271 407 l 0 407 l 0 949 l 407 949 l 407 813 l 136 813 z "},"6":{"ha":678,"x_min":0,"x_max":543,"o":"m 407 949 l 136 949 l 136 814 l 0 814 l 0 136 l 136 136 l 136 0 l 407 0 l 407 136 l 543 136 l 543 407 l 407 407 l 407 543 l 136 543 l 136 814 l 407 814 l 407 949 m 136 136 l 136 407 l 407 407 l 407 136 l 136 136 z "},"7":{"ha":543,"x_min":0,"x_max":407,"o":"m 0 949 l 0 814 l 271 814 l 271 544 l 136 544 l 136 273 l 0 273 l 0 1 l 136 1 l 136 273 l 271 273 l 271 544 l 407 544 l 407 949 l 0 949 z "},"8":{"ha":678,"x_min":0,"x_max":543,"o":"m 0 814 l 0 543 l 136 543 l 136 407 l 0 407 l 0 136 l 136 136 l 136 0 l 407 0 l 407 136 l 543 136 l 543 407 l 407 407 l 407 543 l 543 543 l 543 814 l 407 814 l 407 949 l 136 949 l 136 814 l 0 814 m 407 814 l 407 543 l 136 543 l 136 814 l 407 814 m 407 406 l 407 135 l 136 135 l 136 406 l 407 406 z "},"9":{"ha":678,"x_min":0,"x_max":543,"o":"m 136 0 l 407 0 l 407 136 l 543 136 l 543 814 l 407 814 l 407 949 l 136 949 l 136 814 l 0 814 l 0 543 l 136 543 l 136 407 l 407 407 l 407 136 l 136 136 l 136 0 m 407 814 l 407 543 l 136 543 l 136 814 l 407 814 z "}," ":{"ha":407,"x_min":0,"x_max":0,"o":""}," ":{"ha":407,"x_min":0,"x_max":0,"o":""},"!":{"ha":271,"x_min":1,"x_max":136,"o":"m 1 136 l 1 0 l 136 0 l 136 136 l 1 136 m 1 950 l 1 271 l 136 271 l 136 950 l 1 950 z "},"\"":{"ha":543,"x_min":0,"x_max":407,"o":"m 0 1085 l 0 814 l 136 814 l 136 1085 l 0 1085 m 271 1085 l 271 814 l 407 814 l 407 1085 l 271 1085 z "},"#":{"ha":814,"x_min":-1,"x_max":677,"o":"m 135 814 l 135 136 l 271 136 l 271 814 l 135 814 m 406 814 l 406 136 l 542 136 l 542 814 l 406 814 m -1 543 l 677 543 l 677 678 l -1 678 l -1 543 m 135 814 l 135 136 l 271 136 l 271 814 l 135 814 m -1 271 l 677 271 l 677 407 l -1 407 l -1 271 z "},"$":{"ha":543,"x_min":0,"x_max":407,"o":"m 136 949 l 136 814 l 0 814 l 0 543 l 136 543 l 136 407 l 271 407 l 271 136 l 0 136 l 0 0 l 271 0 l 271 136 l 407 136 l 407 407 l 271 407 l 271 543 l 136 543 l 136 814 l 407 814 l 407 949 l 136 949 m 136 949 l 136 1085 l 271 1085 l 271 949 l 136 949 m 136 -136 l 136 -1 l 271 -1 l 271 -136 l 136 -136 z "},"%":{"ha":1085,"x_min":0,"x_max":949,"o":"m 136 949 l 136 814 l 0 814 l 0 678 l 136 678 l 136 543 l 271 543 l 271 678 l 407 678 l 407 814 l 271 814 l 271 949 l 136 949 m 271 814 l 271 678 l 136 678 l 136 814 l 271 814 m 678 407 l 678 271 l 543 271 l 543 136 l 678 136 l 678 0 l 814 0 l 814 136 l 949 136 l 949 271 l 814 271 l 814 407 l 678 407 m 814 271 l 814 136 l 678 136 l 678 271 l 814 271 m 0 0 l 0 136 l 136 136 l 136 271 l 271 271 l 271 407 l 407 407 l 407 543 l 543 543 l 543 678 l 678 678 l 678 814 l 814 814 l 814 949 l 949 949 l 949 814 l 814 814 l 814 678 l 678 678 l 678 543 l 543 543 l 543 407 l 407 407 l 407 271 l 271 271 l 271 136 l 136 136 l 136 0 l 0 0 z "},"&":{"ha":949,"x_min":0,"x_max":814,"o":"m 136 0 l 543 0 l 543 136 l 678 136 l 678 0 l 814 0 l 814 136 l 678 136 l 678 407 l 814 407 l 814 543 l 678 543 l 678 407 l 543 407 l 543 543 l 407 543 l 407 678 l 543 678 l 543 814 l 407 814 l 407 949 l 271 949 l 271 814 l 136 814 l 136 678 l 271 678 l 271 543 l 136 543 l 136 407 l 0 407 l 0 136 l 136 136 l 136 0 m 543 407 l 543 136 l 136 136 l 136 407 l 272 407 l 272 543 l 408 543 l 408 407 l 543 407 m 271 814 l 407 814 l 407 678 l 271 678 l 271 814 z "},"'":{"ha":271,"x_min":0,"x_max":136,"o":"m 0 1085 l 0 814 l 136 814 l 136 1085 l 0 1085 z "},"(":{"ha":407,"x_min":0,"x_max":271,"o":"m 0 949 l 0 0 l 136 0 l 136 949 l 0 949 m 136 1085 l 136 949 l 271 949 l 271 1085 l 136 1085 m 136 -1 l 136 -136 l 271 -136 l 271 -1 l 136 -1 z "},")":{"ha":407,"x_min":0,"x_max":271,"o":"m 136 949 l 136 0 l 271 0 l 271 949 l 136 949 m 0 1085 l 0 949 l 136 949 l 136 1085 l 0 1085 m 0 -1 l 0 -136 l 136 -136 l 136 -1 l 0 -1 z "},"*":{"ha":543,"x_min":0,"x_max":407,"o":"m 271 949 l 271 814 l 407 814 l 407 678 l 271 678 l 271 814 l 136 814 l 136 678 l 0 678 l 0 814 l 136 814 l 136 949 l 0 949 l 0 1085 l 136 1085 l 136 949 l 407 949 l 407 1085 l 271 1085 l 271 949 z "},"+":{"ha":814,"x_min":0,"x_max":678,"o":"m 271 407 l 0 407 l 0 543 l 271 543 l 271 814 l 407 814 l 407 543 l 678 543 l 678 407 l 407 407 l 407 136 l 271 136 l 271 407 z "},",":{"ha":271,"x_min":0,"x_max":136,"o":"m 0 135 l 0 -136 l 136 -136 l 136 135 l 0 135 z "},"-":{"ha":543,"x_min":0,"x_max":407,"o":"m 0 271 l 0 407 l 407 407 l 407 271 l 0 271 z "},"­":{"ha":543,"x_min":0,"x_max":407,"o":"m 0 271 l 0 407 l 407 407 l 407 271 l 0 271 z "},".":{"ha":271,"x_min":0,"x_max":136,"o":"m 0 136 l 0 0 l 136 0 l 136 136 l 0 136 z "},"/":{"ha":543,"x_min":1,"x_max":408,"o":"m 1 -136 l 136 -136 l 136 271 l 272 271 l 272 678 l 408 678 l 408 1085 l 272 1085 l 272 678 l 136 678 l 136 271 l 1 271 l 1 -136 z "},":":{"ha":271,"x_min":0,"x_max":136,"o":"m 0 136 l 0 0 l 136 0 l 136 136 l 0 136 m 0 543 l 0 407 l 136 407 l 136 543 l 0 543 z "},";":{"ha":271,"x_min":0,"x_max":136,"o":"m 0 136 l 0 -136 l 136 -136 l 136 136 l 0 136 m 0 543 l 0 408 l 136 408 l 136 543 l 0 543 z "},";":{"ha":271,"x_min":0,"x_max":136,"o":"m 0 136 l 0 -136 l 136 -136 l 136 136 l 0 136 m 0 543 l 0 408 l 136 408 l 136 543 l 0 543 z "},"<":{"ha":688,"x_min":59,"x_max":629,"o":"m 629 728 l 205 485 l 629 244 l 629 131 l 59 457 l 59 513 l 629 842 l 629 728 z "},"=":{"ha":688,"x_min":59,"x_max":629,"o":"m 59 428 l 629 428 l 629 333 l 59 333 l 59 428 m 59 640 l 629 640 l 629 545 l 59 545 l 59 640 z "},">":{"ha":688,"x_min":59,"x_max":629,"o":"m 59 842 l 629 513 l 629 457 l 59 131 l 59 244 l 483 485 l 59 728 l 59 842 z "},"?":{"ha":543,"x_min":0,"x_max":407,"o":"m 0 949 l 0 814 l 271 814 l 271 543 l 136 543 l 136 271 l 271 271 l 271 543 l 407 543 l 407 814 l 271 814 l 271 949 l 0 949 m 136 136 l 136 0 l 271 0 l 271 136 l 136 136 z "},"@":{"ha":1085,"x_min":0,"x_max":949,"o":"m 0 678 l 0 271 l 136 271 l 136 678 l 0 678 m 136 814 l 136 678 l 271 678 l 271 814 l 136 814 m 136 814 l 136 678 l 271 678 l 271 814 l 136 814 m 678 949 l 271 949 l 271 814 l 678 814 l 678 949 m 814 814 l 678 814 l 678 678 l 814 678 l 814 814 m 949 271 l 949 678 l 814 678 l 814 271 l 949 271 m 814 136 l 814 271 l 678 271 l 678 136 l 814 136 m 271 0 l 678 0 l 678 136 l 271 136 l 271 0 m 136 136 l 271 136 l 271 271 l 136 271 l 136 136 m 678 543 l 543 543 l 543 271 l 678 271 l 678 543 m 543 407 l 407 407 l 407 271 l 543 271 l 543 407 m 407 543 l 271 543 l 271 407 l 407 407 l 407 543 m 543 678 l 407 678 l 407 543 l 543 543 l 543 678 z "},"A":{"ha":678,"x_min":0,"x_max":543,"o":"m 0 0 l 0 814 l 136 814 l 136 949 l 407 949 l 407 814 l 543 814 l 543 0 l 407 0 l 407 407 l 136 407 l 136 0 l 0 0 m 136 543 l 407 543 l 407 814 l 136 814 l 136 543 z "},"B":{"ha":678,"x_min":0,"x_max":543,"o":"m 0 0 l 0 949 l 407 949 l 407 814 l 543 814 l 543 543 l 407 543 l 407 407 l 543 407 l 543 136 l 407 136 l 407 0 l 0 0 m 407 136 l 407 407 l 136 407 l 136 136 l 407 136 m 136 543 l 407 543 l 407 814 l 136 814 l 136 543 z "},"C":{"ha":543,"x_min":0,"x_max":407,"o":"m 407 0 l 407 136 l 136 136 l 136 814 l 407 814 l 407 949 l 136 949 l 136 814 l 0 814 l 0 136 l 136 136 l 136 0 l 407 0 z "},"D":{"ha":678,"x_min":0,"x_max":543,"o":"m 0 0 l 0 949 l 407 949 l 407 814 l 543 814 l 543 136 l 407 136 l 407 0 l 0 0 m 407 136 l 407 814 l 136 814 l 136 136 l 407 136 z "},"E":{"ha":543,"x_min":0,"x_max":407,"o":"m 0 0 l 0 949 l 407 949 l 407 814 l 136 814 l 136 543 l 407 543 l 407 407 l 136 407 l 136 136 l 407 136 l 407 0 l 0 0 z "},"F":{"ha":543,"x_min":0,"x_max":407,"o":"m 0 0 l 0 949 l 407 949 l 407 814 l 136 814 l 136 543 l 407 543 l 407 407 l 136 407 l 136 0 l 0 0 z "},"G":{"ha":678,"x_min":0,"x_max":543,"o":"m 407 951 l 136 951 l 136 815 l 0 815 l 0 136 l 136 136 l 136 0 l 407 0 l 407 136 l 543 136 l 543 543 l 271 543 l 271 407 l 407 407 l 407 136 l 136 136 l 136 814 l 407 814 l 407 951 z "},"H":{"ha":678,"x_min":0,"x_max":543,"o":"m 0 0 l 0 949 l 136 949 l 136 543 l 407 543 l 407 949 l 543 949 l 543 0 l 407 0 l 407 407 l 136 407 l 136 0 l 0 0 z "},"I":{"ha":271,"x_min":0,"x_max":136,"o":"m 0 949 l 136 949 l 136 0 l 0 0 l 0 949 z "},"J":{"ha":407,"x_min":0,"x_max":271,"o":"m 136 814 l 0 814 l 0 949 l 271 949 l 271 136 l 136 136 l 136 0 l 0 0 l 0 136 l 136 136 l 136 814 z "},"K":{"ha":678,"x_min":0,"x_max":543,"o":"m 0 949 l 0 0 l 136 0 l 136 407 l 271 407 l 271 271 l 407 271 l 407 0 l 543 0 l 543 271 l 407 271 l 407 407 l 271 407 l 271 543 l 407 543 l 407 678 l 543 678 l 543 949 l 407 949 l 407 678 l 271 678 l 271 543 l 136 543 l 136 949 l 0 949 z "},"L":{"ha":543,"x_min":0,"x_max":407,"o":"m 0 949 l 0 0 l 407 0 l 407 136 l 136 136 l 136 949 l 0 949 z "},"M":{"ha":814,"x_min":0,"x_max":678,"o":"m 136 0 l 0 0 l 0 949 l 136 949 l 136 678 l 271 678 l 271 543 l 407 543 l 407 678 l 543 678 l 543 949 l 678 949 l 678 0 l 543 0 l 543 543 l 407 543 l 407 407 l 271 407 l 271 543 l 136 543 l 136 0 z "},"N":{"ha":678,"x_min":0,"x_max":543,"o":"m 0 0 l 0 949 l 136 949 l 136 678 l 271 678 l 271 543 l 407 543 l 407 949 l 543 949 l 543 0 l 407 0 l 407 407 l 271 407 l 271 543 l 136 543 l 136 0 l 0 0 z "},"O":{"ha":678,"x_min":0,"x_max":543,"o":"m 136 136 l 0 136 l 0 814 l 136 814 l 136 949 l 407 949 l 407 814 l 543 814 l 543 136 l 407 136 l 407 0 l 136 0 l 136 136 m 136 136 l 407 136 l 407 814 l 136 814 l 136 136 z "},"P":{"ha":678,"x_min":0,"x_max":543,"o":"m 0 0 l 0 949 l 407 949 l 407 814 l 543 814 l 543 543 l 407 543 l 407 407 l 136 407 l 136 0 l 0 0 m 407 543 l 407 814 l 136 814 l 136 543 l 407 543 z "},"Q":{"ha":678,"x_min":0,"x_max":543,"o":"m 271 0 l 136 0 l 136 136 l 0 136 l 0 814 l 136 814 l 136 949 l 407 949 l 407 814 l 543 814 l 543 271 l 407 271 l 407 814 l 136 814 l 136 136 l 271 136 l 271 0 m 407 0 l 543 0 l 543 136 l 407 136 l 407 271 l 271 271 l 271 136 l 407 136 l 407 0 z "},"R":{"ha":678,"x_min":0,"x_max":543,"o":"m 0 0 l 0 949 l 407 949 l 407 814 l 543 814 l 543 543 l 407 543 l 407 407 l 136 407 l 136 0 l 0 0 m 407 543 l 407 814 l 136 814 l 136 543 l 407 543 m 407 407 l 407 0 l 543 0 l 543 407 l 407 407 z "},"S":{"ha":543,"x_min":0,"x_max":407,"o":"m 136 949 l 136 814 l 0 814 l 0 543 l 136 543 l 136 407 l 271 407 l 271 136 l 0 136 l 0 0 l 271 0 l 271 136 l 407 136 l 407 407 l 271 407 l 271 543 l 136 543 l 136 814 l 407 814 l 407 949 l 136 949 z "},"T":{"ha":543,"x_min":0,"x_max":407,"o":"m 0 949 l 0 814 l 136 814 l 136 0 l 271 0 l 271 814 l 407 814 l 407 949 l 0 949 z "},"U":{"ha":678,"x_min":0,"x_max":543,"o":"m 0 949 l 0 136 l 136 136 l 136 0 l 407 0 l 407 136 l 543 136 l 543 949 l 407 949 l 407 136 l 136 136 l 136 949 l 0 949 z "},"V":{"ha":814,"x_min":0,"x_max":678,"o":"m 0 949 l 0 543 l 136 543 l 136 271 l 271 271 l 271 0 l 407 0 l 407 271 l 543 271 l 543 543 l 678 543 l 678 949 l 543 949 l 543 543 l 407 543 l 407 271 l 271 271 l 271 543 l 136 543 l 136 949 l 0 949 z "},"W":{"ha":814,"x_min":0,"x_max":678,"o":"m 0 949 l 0 0 l 136 0 l 136 271 l 271 271 l 271 407 l 407 407 l 407 271 l 543 271 l 543 0 l 678 0 l 678 949 l 543 949 l 543 407 l 407 407 l 407 543 l 271 543 l 271 407 l 136 407 l 136 949 l 0 949 z "},"X":{"ha":814,"x_min":0,"x_max":678,"o":"m 0 949 l 0 678 l 136 678 l 136 543 l 271 543 l 271 407 l 136 407 l 136 271 l 0 271 l 0 0 l 136 0 l 136 271 l 271 271 l 271 407 l 407 407 l 407 271 l 543 271 l 543 0 l 678 0 l 678 271 l 543 271 l 543 407 l 407 407 l 407 543 l 543 543 l 543 678 l 678 678 l 678 949 l 543 949 l 543 678 l 407 678 l 407 543 l 271 543 l 271 678 l 136 678 l 136 949 l 0 949 z "},"Y":{"ha":814,"x_min":0,"x_max":678,"o":"m 0 949 l 0 678 l 136 678 l 136 543 l 271 543 l 271 0 l 407 0 l 407 543 l 543 543 l 543 678 l 678 678 l 678 949 l 543 949 l 543 678 l 407 678 l 407 543 l 271 543 l 271 678 l 136 678 l 136 949 l 0 949 z "},"Z":{"ha":543,"x_min":0,"x_max":407,"o":"m 0 814 l 0 949 l 407 949 l 407 678 l 271 678 l 271 271 l 136 271 l 136 136 l 407 136 l 407 0 l 0 0 l 0 271 l 136 271 l 136 678 l 271 678 l 271 814 l 0 814 z "},"[":{"ha":407,"x_min":0,"x_max":271,"o":"m 0 1221 l 136 1221 l 136 -271 l 0 -271 l 0 1221 m 136 1221 l 271 1221 l 271 1085 l 136 1085 l 136 1221 m 136 -136 l 271 -136 l 271 -272 l 136 -272 l 136 -136 z "},"\\":{"ha":543,"x_min":1,"x_max":408,"o":"m 408 271 l 272 271 l 272 678 l 136 678 l 136 1085 l 1 1085 l 1 678 l 136 678 l 136 271 l 272 271 l 272 -136 l 408 -136 l 408 271 z "},"]":{"ha":407,"x_min":0,"x_max":271,"o":"m 271 -271 l 136 -271 l 136 1221 l 271 1221 l 271 -271 m 136 1085 l 0 1085 l 0 1221 l 136 1221 l 136 1085 m 136 -272 l 0 -272 l 0 -136 l 136 -136 l 136 -272 z "},"^":{"ha":543,"x_min":0,"x_max":407,"o":"m 0 949 l 0 814 l 136 814 l 136 949 l 0 949 m 136 1085 l 136 949 l 271 949 l 271 1085 l 136 1085 m 271 949 l 271 814 l 407 814 l 407 949 l 271 949 z "},"_":{"ha":814,"x_min":0,"x_max":678,"o":"m 0 0 l 678 0 l 678 -136 l 0 -136 l 0 0 z "},"a":{"ha":678,"x_min":0,"x_max":543,"o":"m 136 136 l 0 136 l 0 271 l 136 271 l 136 407 l 407 407 l 407 543 l 136 543 l 136 678 l 407 678 l 407 543 l 543 543 l 543 0 l 136 0 l 136 136 m 407 136 l 407 271 l 136 271 l 136 136 l 407 136 z "},"b":{"ha":678,"x_min":0,"x_max":543,"o":"m 0 0 l 0 949 l 136 949 l 136 678 l 407 678 l 407 543 l 543 543 l 543 136 l 407 136 l 407 0 l 0 0 m 407 136 l 407 543 l 136 543 l 136 136 l 407 136 z "},"c":{"ha":543,"x_min":0,"x_max":407,"o":"m 136 0 l 136 136 l 0 136 l 0 543 l 136 543 l 136 678 l 407 678 l 407 543 l 136 543 l 136 136 l 407 136 l 407 0 l 136 0 z "},"d":{"ha":678,"x_min":0,"x_max":543,"o":"m 136 0 l 136 136 l 0 136 l 0 543 l 136 543 l 136 678 l 407 678 l 407 949 l 543 949 l 543 0 l 136 0 m 407 136 l 407 543 l 136 543 l 136 136 l 407 136 z "},"e":{"ha":678,"x_min":0,"x_max":543,"o":"m 407 136 l 407 0 l 136 0 l 136 136 l 0 136 l 0 543 l 136 543 l 136 678 l 407 678 l 407 543 l 543 543 l 543 271 l 136 271 l 136 136 l 407 136 m 136 543 l 136 407 l 407 407 l 407 543 l 136 543 z "},"f":{"ha":407,"x_min":0,"x_max":407,"o":"m 0 0 l 0 814 l 136 814 l 136 949 l 407 949 l 407 814 l 136 814 l 136 678 l 271 678 l 271 543 l 136 543 l 136 0 l 0 0 z "},"g":{"ha":678,"x_min":0,"x_max":543,"o":"m 0 543 l 0 136 l 136 136 l 136 0 l 407 0 l 407 -136 l 136 -136 l 136 -271 l 407 -271 l 407 -136 l 543 -136 l 543 543 l 407 543 l 407 678 l 136 678 l 136 543 l 0 543 m 407 543 l 407 136 l 136 136 l 136 543 l 407 543 z "},"h":{"ha":678,"x_min":0,"x_max":543,"o":"m 0 949 l 0 0 l 136 0 l 136 543 l 407 543 l 407 0 l 543 0 l 543 543 l 407 543 l 407 678 l 136 678 l 136 949 l 0 949 z "},"i":{"ha":271,"x_min":0,"x_max":136,"o":"m 0 678 l 0 0 l 136 0 l 136 678 l 0 678 m 0 814 l 136 814 l 136 949 l 0 949 l 0 814 z "},"j":{"ha":271,"x_min":-136,"x_max":136,"o":"m 0 678 l 0 -136 l 136 -136 l 136 678 l 0 678 m 0 814 l 136 814 l 136 949 l 0 949 l 0 814 m -136 -271 l 0 -271 l 0 -136 l -136 -136 l -136 -271 z "},"k":{"ha":678,"x_min":0,"x_max":543,"o":"m 0 949 l 0 0 l 136 0 l 136 271 l 271 271 l 271 136 l 407 136 l 407 0 l 543 0 l 543 136 l 407 136 l 407 271 l 271 271 l 271 407 l 407 407 l 407 543 l 543 543 l 543 678 l 407 678 l 407 543 l 271 543 l 271 407 l 136 407 l 136 949 l 0 949 z "},"l":{"ha":271,"x_min":0,"x_max":136,"o":"m 0 949 l 0 0 l 136 0 l 136 949 l 0 949 z "},"m":{"ha":1085,"x_min":0,"x_max":949,"o":"m 0 0 l 136 0 l 136 543 l 407 543 l 407 0 l 543 0 l 543 543 l 814 543 l 814 0 l 949 0 l 949 543 l 814 543 l 814 678 l 543 678 l 543 543 l 407 543 l 407 678 l 136 678 l 136 543 l 0 543 l 0 0 z "},"n":{"ha":678,"x_min":0,"x_max":543,"o":"m 0 0 l 136 0 l 136 543 l 407 543 l 407 0 l 543 0 l 543 543 l 407 543 l 407 678 l 136 678 l 136 543 l 0 543 l 0 0 z "},"o":{"ha":678,"x_min":0,"x_max":543,"o":"m 0 543 l 0 136 l 136 136 l 136 0 l 407 0 l 407 136 l 543 136 l 543 543 l 407 543 l 407 678 l 136 678 l 136 543 l 0 543 m 407 543 l 407 136 l 136 136 l 136 543 l 407 543 z "},"p":{"ha":678,"x_min":0,"x_max":543,"o":"m 407 678 l 407 543 l 543 543 l 543 136 l 407 136 l 407 0 l 136 0 l 136 -271 l 0 -271 l 0 678 l 136 678 l 407 678 m 136 543 l 136 136 l 407 136 l 407 543 l 136 543 z "},"q":{"ha":678,"x_min":0,"x_max":678,"o":"m 407 678 l 407 543 l 543 543 l 543 -136 l 678 -136 l 678 -271 l 407 -271 l 407 0 l 136 0 l 136 136 l 0 136 l 0 543 l 136 543 l 136 678 l 407 678 m 136 543 l 136 136 l 407 136 l 407 543 l 136 543 z "},"r":{"ha":543,"x_min":0,"x_max":407,"o":"m 0 0 l 136 0 l 136 543 l 407 543 l 407 678 l 136 678 l 136 543 l 0 543 l 0 0 z "},"s":{"ha":543,"x_min":0,"x_max":407,"o":"m 136 678 l 407 678 l 407 543 l 136 543 l 136 407 l 271 407 l 271 271 l 407 271 l 407 136 l 271 136 l 271 0 l 0 0 l 0 136 l 271 136 l 271 271 l 136 271 l 136 407 l 0 407 l 0 543 l 136 543 l 136 678 z "},"t":{"ha":543,"x_min":0,"x_max":407,"o":"m 136 949 l 136 678 l 271 678 l 271 543 l 136 543 l 136 136 l 407 136 l 407 0 l 136 0 l 136 136 l 0 136 l 0 949 l 136 949 z "},"u":{"ha":678,"x_min":0,"x_max":543,"o":"m 0 136 l 136 136 l 136 0 l 407 0 l 407 136 l 543 136 l 543 678 l 407 678 l 407 136 l 136 136 l 136 678 l 0 678 l 0 136 z "},"v":{"ha":814,"x_min":0,"x_max":678,"o":"m 0 678 l 0 407 l 136 407 l 136 136 l 271 136 l 271 0 l 407 0 l 407 136 l 543 136 l 543 407 l 678 407 l 678 678 l 543 678 l 543 407 l 407 407 l 407 136 l 271 136 l 271 407 l 136 407 l 136 678 l 0 678 z "},"w":{"ha":1085,"x_min":0,"x_max":949,"o":"m 0 136 l 136 136 l 136 0 l 407 0 l 407 136 l 543 136 l 543 0 l 814 0 l 814 136 l 949 136 l 949 678 l 814 678 l 814 136 l 543 136 l 543 678 l 407 678 l 407 136 l 136 136 l 136 678 l 0 678 l 0 136 z "},"x":{"ha":814,"x_min":0,"x_max":678,"o":"m 0 678 l 0 543 l 136 543 l 136 407 l 271 407 l 271 271 l 136 271 l 136 136 l 0 136 l 0 0 l 136 0 l 136 136 l 271 136 l 271 271 l 407 271 l 407 136 l 543 136 l 543 0 l 678 0 l 678 136 l 543 136 l 543 271 l 407 271 l 407 407 l 543 407 l 543 543 l 678 543 l 678 678 l 543 678 l 543 543 l 407 543 l 407 407 l 271 407 l 271 543 l 136 543 l 136 678 l 0 678 z "},"y":{"ha":678,"x_min":0,"x_max":543,"o":"m 0 678 l 0 136 l 136 136 l 136 0 l 407 0 l 407 -136 l 136 -136 l 136 -271 l 407 -271 l 407 -136 l 543 -136 l 543 678 l 407 678 l 407 136 l 136 136 l 136 678 l 0 678 z "},"z":{"ha":543,"x_min":0,"x_max":407,"o":"m 0 678 l 0 543 l 271 543 l 271 407 l 136 407 l 136 271 l 0 271 l 0 136 l 0 0 l 407 0 l 407 136 l 136 136 l 136 271 l 271 271 l 271 407 l 407 407 l 407 543 l 407 678 l 0 678 z "},"{":{"ha":543,"x_min":0,"x_max":407,"o":"m 407 -136 l 271 -136 l 271 0 l 136 0 l 136 407 l 0 407 l 0 543 l 136 543 l 136 949 l 271 949 l 271 1085 l 407 1085 l 407 949 l 271 949 l 271 543 l 136 543 l 136 407 l 271 407 l 271 0 l 407 0 l 407 -136 z "},"|":{"ha":543,"x_min":136,"x_max":271,"o":"m 136 1221 l 271 1221 l 271 -271 l 136 -271 l 136 1221 z "},"}":{"ha":543,"x_min":0,"x_max":407,"o":"m 0 0 l 136 0 l 136 407 l 271 407 l 271 543 l 136 543 l 136 949 l 0 949 l 0 1085 l 136 1085 l 136 949 l 271 949 l 271 543 l 407 543 l 407 407 l 271 407 l 271 0 l 136 0 l 136 -136 l 0 -136 l 0 0 z "},"~":{"ha":814,"x_min":0,"x_max":678,"o":"m 0 407 l 0 271 l 136 271 l 136 407 l 0 407 m 136 543 l 136 407 l 271 407 l 271 543 l 136 543 m 271 407 l 271 271 l 407 271 l 407 407 l 271 407 m 407 271 l 407 136 l 543 136 l 543 271 l 407 271 m 543 407 l 543 271 l 678 271 l 678 407 l 543 407 z "},"£":{"ha":678,"x_min":0,"x_max":543,"o":"m 0 0 l 0 136 l 136 136 l 136 814 l 271 814 l 271 949 l 543 949 l 543 814 l 271 814 l 271 543 l 407 543 l 407 407 l 271 407 l 271 136 l 543 136 l 543 0 l 0 0 z "},"©":{"ha":1085,"x_min":0,"x_max":949,"o":"m 0 678 l 0 271 l 136 271 l 136 678 l 0 678 m 136 814 l 136 678 l 271 678 l 271 814 l 136 814 m 136 814 l 136 678 l 271 678 l 271 814 l 136 814 m 678 949 l 271 949 l 271 814 l 678 814 l 678 949 m 814 814 l 678 814 l 678 678 l 814 678 l 814 814 m 949 271 l 949 678 l 814 678 l 814 271 l 949 271 m 814 136 l 814 271 l 678 271 l 678 136 l 814 136 m 271 0 l 678 0 l 678 136 l 271 136 l 271 0 m 136 136 l 271 136 l 271 271 l 136 271 l 136 136 m 678 407 l 407 407 l 407 271 l 678 271 l 678 407 m 407 543 l 271 543 l 271 407 l 407 407 l 407 543 m 678 678 l 407 678 l 407 543 l 678 543 l 678 678 z "},"«":{"ha":814,"x_min":0,"x_max":678,"o":"m 0 407 l 0 271 l 136 271 l 136 407 l 0 407 m 136 543 l 136 407 l 271 407 l 271 543 l 136 543 m 136 271 l 136 136 l 271 136 l 271 271 l 136 271 m 407 407 l 407 271 l 543 271 l 543 407 l 407 407 m 543 543 l 543 407 l 678 407 l 678 543 l 543 543 m 543 271 l 543 136 l 678 136 l 678 271 l 543 271 z "},"¬":{"ha":688,"x_min":59,"x_max":629,"o":"m 59 520 l 629 520 l 629 187 l 628 186 l 562 186 l 562 452 l 59 452 l 59 520 z "},"®":{"ha":1085,"x_min":0,"x_max":949,"o":"m 0 678 l 0 271 l 136 271 l 136 678 l 0 678 m 136 814 l 136 678 l 271 678 l 271 814 l 136 814 m 136 814 l 136 678 l 271 678 l 271 814 l 136 814 m 678 949 l 271 949 l 271 814 l 678 814 l 678 949 m 814 814 l 678 814 l 678 678 l 814 678 l 814 814 m 949 271 l 949 678 l 814 678 l 814 271 l 949 271 m 814 136 l 814 271 l 678 271 l 678 136 l 814 136 m 271 0 l 678 0 l 678 136 l 271 136 l 271 0 m 136 136 l 271 136 l 271 271 l 136 271 l 136 136 m 407 543 l 271 543 l 271 271 l 407 271 l 407 543 m 678 678 l 407 678 l 407 543 l 678 543 l 678 678 z "},"°":{"ha":543,"x_min":0,"x_max":407,"o":"m 136 1085 l 136 949 l 0 949 l 0 814 l 136 814 l 136 678 l 271 678 l 271 814 l 407 814 l 407 949 l 271 949 l 271 1085 l 136 1085 m 271 949 l 271 814 l 136 814 l 136 949 l 271 949 z "},"»":{"ha":814,"x_min":0,"x_max":678,"o":"m 543 407 l 543 271 l 678 271 l 678 407 l 543 407 m 407 543 l 407 407 l 543 407 l 543 543 l 407 543 m 407 271 l 407 136 l 543 136 l 543 271 l 407 271 m 136 407 l 136 271 l 271 271 l 271 407 l 136 407 m 0 543 l 0 407 l 136 407 l 136 543 l 0 543 m 0 271 l 0 136 l 136 136 l 136 271 l 0 271 z "},"÷":{"ha":814,"x_min":0,"x_max":678,"o":"m 271 407 l 0 407 l 0 543 l 271 543 l 271 814 l 407 814 l 407 543 l 678 543 l 678 407 l 407 407 l 407 136 l 271 136 l 271 407 m 271 678 l 271 543 l 407 543 l 407 678 l 271 678 m 271 406 l 271 271 l 407 271 l 407 406 l 271 406 z "},"–":{"ha":751,"x_min":38,"x_max":713,"o":"m 38 284 l 38 366 l 713 366 l 713 284 l 38 284 z "},"—":{"ha":1389,"x_min":0,"x_max":1389,"o":"m 0 284 l 0 366 l 1389 366 l 1389 284 l 0 284 z "},"‘":{"ha":271,"x_min":0,"x_max":136,"o":"m 0 1085 l 0 814 l 136 814 l 136 1085 l 0 1085 z "},"’":{"ha":271,"x_min":0,"x_max":136,"o":"m 0 1085 l 0 814 l 136 814 l 136 1085 l 0 1085 z "},"“":{"ha":543,"x_min":0,"x_max":407,"o":"m 0 1085 l 0 814 l 136 814 l 136 1085 l 0 1085 m 271 1085 l 271 814 l 407 814 l 407 1085 l 271 1085 z "},"”":{"ha":543,"x_min":0,"x_max":407,"o":"m 0 1085 l 0 814 l 136 814 l 136 1085 l 0 1085 m 271 1085 l 271 814 l 407 814 l 407 1085 l 271 1085 z "},"€":{"ha":678,"x_min":0,"x_max":543,"o":"m 0 678 l 0 271 l 136 271 l 136 136 l 271 136 l 271 0 l 543 0 l 543 136 l 271 136 l 271 271 l 136 271 l 136 407 l 407 407 l 407 543 l 136 543 l 136 678 l 271 678 l 271 814 l 543 814 l 543 949 l 271 949 l 271 814 l 136 814 l 136 678 l 0 678 z "}}}
